<svg xmlns="http://www.w3.org/2000/svg" width="78.891" height="86.035" viewBox="0 0 78.891 86.035">
  <path id="Union_15" data-name="Union 15" d="M12036.5,1144.714a50.435,50.435,0,0,0-7.316-10.649s3.865-5.331,7.891-10.682,8.269-11.165,8.269-11.165a70.292,70.292,0,0,1,1.73,8.208,57.911,57.911,0,0,1,.479,7.9,119.684,119.684,0,0,0-3.263,12.631c-1.658,7.9-3.212,18.077-3.212,18.077A64.914,64.914,0,0,0,12036.5,1144.714Zm3.628-50.726c-8.312-9.9-23.126-14.365-23.126-14.365s14.383-7.8,27.9-5.8a42.849,42.849,0,0,1,14.771,4.632,63.242,63.242,0,0,1,12.006,9.092,66.587,66.587,0,0,0-12.553,14.049,116.424,116.424,0,0,0-8.882,17.607S12048.437,1103.882,12040.125,1093.988Zm30.444-13.075a45.573,45.573,0,0,0-4.963-3.367s7.213-5.006,14.607-4.514a25.456,25.456,0,0,1,9.426,2.7,36.442,36.442,0,0,1,6.25,4,52.065,52.065,0,0,0-11.885,1.181,41.263,41.263,0,0,0-9.435,3.816A34.991,34.991,0,0,0,12070.569,1080.914Z" transform="translate(-12016.999 -1072.999)" fill="#046eb3"/>
</svg>
