<svg xmlns="http://www.w3.org/2000/svg" width="34.793" height="34.793" viewBox="0 0 34.793 34.793">
  <g id="Group_95903" data-name="Group 95903" transform="translate(-989.515 -401.515)">
    <g id="MDI_octagram" data-name="MDI / octagram" transform="translate(989.515 401.515)">
      <g id="Boundary" fill="#277ffe" stroke="rgba(0,0,0,0)" stroke-width="1" opacity="0">
        <rect width="34.793" height="34.793" stroke="none"/>
        <rect x="0.5" y="0.5" width="33.793" height="33.793" fill="none"/>
      </g>
      <path id="Path_octagram" data-name="Path / octagram" d="M2.2,23.693l2.605-6.3L2.2,11.1,8.5,8.5,11.1,2.2l6.3,2.605,6.3-2.605L26.3,8.5l6.3,2.605-2.605,6.3,2.605,6.3L26.3,26.3l-2.605,6.3-6.3-2.605-6.3,2.605L8.5,26.3Z" transform="translate(-0.2 -0.2)" fill="#277ffe"/>
    </g>
    <g id="Group_95902" data-name="Group 95902" transform="translate(995.313 407.291)">
      <circle id="Ellipse_129232" data-name="Ellipse 129232" cx="11.5" cy="11.5" r="11.5" transform="translate(-0.313 -0.291)" fill="#277ffe"/>
      <path id="icons8-checked-checkbox" d="M22.375,11.95l-8.231,8.231a.883.883,0,0,1-1.248,0L9.369,16.653a.882.882,0,0,1,1.247-1.247l2.9,2.9L21.127,10.7a.882.882,0,0,1,1.248,1.247Z" transform="translate(-4.628 -4.198)" fill="#fff"/>
    </g>
  </g>
</svg>
